<?xml version="1.0" standalone="no"?>
<!DOCTYPE svg PUBLIC "-//W3C//DTD SVG 20010904//EN"
 "http://www.w3.org/TR/2001/REC-SVG-20010904/DTD/svg10.dtd">
<svg version="1.0" xmlns="http://www.w3.org/2000/svg"
 width="300.000000pt" height="300.000000pt" viewBox="0 0 300.000000 300.000000"
 preserveAspectRatio="xMidYMid meet">
<metadata>
Created by potrace 1.14, written by Peter Selinger 2001-2017
</metadata>
<g transform="translate(0.000000,300.000000) scale(0.100000,-0.100000)"
fill="#000000" stroke="none">
<path d="M1355 2305 c-278 -61 -446 -261 -420 -501 13 -126 87 -230 210 -299
79 -45 116 -57 317 -111 92 -24 191 -54 220 -67 131 -59 177 -148 129 -253
-53 -116 -227 -177 -401 -140 -126 27 -215 103 -227 195 l-6 41 -143 0 c-166
0 -156 8 -129 -108 40 -171 155 -289 339 -348 109 -36 329 -45 457 -20 168 33
311 130 368 249 56 116 63 247 19 366 -16 41 -39 74 -87 122 -91 91 -188 137
-415 195 -195 50 -246 68 -294 109 -44 37 -62 75 -62 129 0 58 14 93 53 134
80 83 285 104 407 42 51 -26 107 -91 120 -139 l11 -41 139 0 140 0 -6 33 c-22
131 -53 194 -135 272 -68 65 -173 118 -274 140 -85 18 -249 18 -330 0z"/>
</g>
</svg>
